<svg width="25" height="24" viewBox="0 0 25 24" fill="none" xmlns="http://www.w3.org/2000/svg">
<path d="M5.03878 22.8225L6.61556 16.0932C6.74345 15.5474 6.55634 14.9759 6.13047 14.6114L0.851671 10.0934C0.514704 9.80505 0.692186 9.25327 1.1341 9.2154L8.13825 8.61519C8.69017 8.56789 9.1711 8.22026 9.38911 7.71103L12.115 1.34404C12.2881 0.93976 12.8612 0.939759 13.0343 1.34404L15.7601 7.71103C15.9781 8.22027 16.4591 8.56789 17.011 8.61519L24.0151 9.2154C24.4571 9.25327 24.6345 9.80504 24.2976 10.0934L19.0188 14.6114C18.5929 14.9759 18.4058 15.5474 18.5337 16.0932L20.1105 22.8225C20.2111 23.2519 19.7468 23.5918 19.3678 23.3661L13.3421 19.7777C12.8692 19.4961 12.28 19.4961 11.8071 19.7777L5.78142 23.3661C5.40244 23.5918 4.93815 23.2519 5.03878 22.8225Z" stroke="black"/>
</svg>
