<svg width="26" height="24" viewBox="0 0 26 24" fill="none" xmlns="http://www.w3.org/2000/svg">
<path d="M5.67355 22.8225L7.25033 16.0932C7.37821 15.5474 7.19111 14.9759 6.76523 14.6114L1.48644 10.0934C1.14947 9.80505 1.32695 9.25327 1.76886 9.2154L8.77301 8.61519C9.32493 8.56789 9.80586 8.22026 10.0239 7.71103L12.7497 1.34404C12.9228 0.93976 13.4959 0.93976 13.669 1.34405L16.3949 7.71103C16.6129 8.22026 17.0938 8.56789 17.6458 8.61519L24.6499 9.2154C25.0918 9.25327 25.2693 9.80504 24.9323 10.0934L19.6535 14.6114C19.2277 14.9759 19.0406 15.5474 19.1684 16.0932L20.7452 22.8225C20.8459 23.2519 20.3816 23.5918 20.0026 23.3661L13.9769 19.7777C13.504 19.4961 12.9148 19.4961 12.4419 19.7777L6.41619 23.3661C6.0372 23.5918 5.57291 23.2519 5.67355 22.8225Z" fill="#289900" stroke="black"/>
</svg>
