<svg width="1920" height="342" viewBox="0 0 1920 342" fill="none" xmlns="http://www.w3.org/2000/svg">
<path fill-rule="evenodd" clip-rule="evenodd" d="M1927 88.6667L1840.29 88.6667C1753.58 88.6667 1580.17 88.6667 1406.75 122.444C1233.33 156.222 1059.92 223.778 886.5 206.889C713.083 190 539.667 88.6667 366.25 97.1111C192.833 105.556 19.4166 223.778 -67.2917 282.889L-154 342V-114H-67.2917C19.4166 -114 192.833 -114 366.25 -114C539.667 -114 713.083 -114 886.5 -114C1059.92 -114 1233.33 -114 1406.75 -114C1580.17 -114 1753.58 -114 1840.29 -114H1927L1927 88.6667Z" fill="url(#paint0_linear_332_113)"/>
<path fill-rule="evenodd" clip-rule="evenodd" d="M1927 16H1841.67C1756.33 16 1585.67 16 1415 50C1244.33 84 1073.67 152 903 135C732.333 118 561.667 16 391 24.5C220.333 33 49.6666 152 -35.6667 211.5L-121 271V-188H-35.6667C49.6666 -188 220.333 -188 391 -188C561.667 -188 732.333 -188 903 -188C1073.67 -188 1244.33 -188 1415 -188C1585.67 -188 1756.33 -188 1841.67 -188H1927V16Z" fill="url(#paint1_linear_332_113)"/>
<path fill-rule="evenodd" clip-rule="evenodd" d="M1897 -45.4444L1814.67 -45.4444C1732.33 -45.4444 1567.67 -45.4444 1403 -16.8518C1238.33 11.7407 1073.67 68.9259 909 54.6296C744.333 40.3333 579.667 -45.4444 415 -38.2963C250.333 -31.1481 85.6667 68.9259 3.33341 118.963L-78.9999 169V-217L3.33341 -217C85.6667 -217 250.333 -217 415 -217C579.667 -217 744.333 -217 909 -217C1073.67 -217 1238.33 -217 1403 -217C1567.67 -217 1732.33 -217 1814.67 -217H1897V-45.4444Z" fill="url(#paint2_linear_332_113)"/>
<defs>
<linearGradient id="paint0_linear_332_113" x1="886.5" y1="-114" x2="886.5" y2="342" gradientUnits="userSpaceOnUse">
<stop stop-color="#40772D"/>
<stop offset="1" stop-color="#ABD29E"/>
</linearGradient>
<linearGradient id="paint1_linear_332_113" x1="903" y1="-188" x2="903" y2="271" gradientUnits="userSpaceOnUse">
<stop stop-color="#40772D"/>
<stop offset="1" stop-color="#ABD29E"/>
</linearGradient>
<linearGradient id="paint2_linear_332_113" x1="909" y1="-217" x2="909" y2="169" gradientUnits="userSpaceOnUse">
<stop stop-color="#40772D"/>
<stop offset="1" stop-color="#ABD29E"/>
</linearGradient>
</defs>
</svg>
