<svg width="1920" height="419" viewBox="0 0 1920 419" fill="none" xmlns="http://www.w3.org/2000/svg">
<path fill-rule="evenodd" clip-rule="evenodd" d="M1920 141.222H1834.54C1749.08 141.222 1578.17 141.222 1407.25 178.259C1236.33 215.296 1065.42 289.37 894.5 270.852C723.583 252.333 552.667 141.222 381.75 150.481C210.833 159.741 39.9167 289.37 -45.5416 354.185L-131 419V-81L-45.5416 -81C39.9167 -81 210.833 -81 381.75 -81C552.667 -81 723.583 -81 894.5 -81C1065.42 -81 1236.33 -81 1407.25 -81C1578.17 -81 1749.08 -81 1834.54 -81H1920L1920 141.222Z" fill="url(#paint0_linear_321_109)"/>
<path fill-rule="evenodd" clip-rule="evenodd" d="M1920 77.8889H1835.92C1751.83 77.8889 1583.67 77.8889 1415.5 116.704C1247.33 155.519 1079.17 233.148 911 213.741C742.833 194.333 574.667 77.8889 406.5 87.5926C238.333 97.2963 70.1666 233.148 -13.9167 301.074L-98.0001 369V-155H-13.9167C70.1666 -155 238.333 -155 406.5 -155C574.667 -155 742.833 -155 911 -155C1079.17 -155 1247.33 -155 1415.5 -155C1583.67 -155 1751.83 -155 1835.92 -155H1920V77.8889Z" fill="url(#paint1_linear_321_109)"/>
<path fill-rule="evenodd" clip-rule="evenodd" d="M1920 23.1111H1837.67C1755.33 23.1111 1590.67 23.1111 1426 57.6296C1261.33 92.1482 1096.67 161.185 932 143.926C767.333 126.667 602.667 23.1111 438 31.7407C273.333 40.3704 108.667 161.185 26.3334 221.593L-55.9999 282L-55.9999 -184L26.3334 -184C108.667 -184 273.333 -184 438 -184C602.667 -184 767.333 -184 932 -184C1096.67 -184 1261.33 -184 1426 -184C1590.67 -184 1755.33 -184 1837.67 -184H1920L1920 23.1111Z" fill="url(#paint2_linear_321_109)"/>
<defs>
<linearGradient id="paint0_linear_321_109" x1="894.5" y1="-80.9998" x2="894.5" y2="419" gradientUnits="userSpaceOnUse">
<stop stop-color="#40772D"/>
<stop offset="1" stop-color="#ABD29E"/>
</linearGradient>
<linearGradient id="paint1_linear_321_109" x1="911" y1="-155" x2="911" y2="369" gradientUnits="userSpaceOnUse">
<stop stop-color="#40772D"/>
<stop offset="1" stop-color="#ABD29E"/>
</linearGradient>
<linearGradient id="paint2_linear_321_109" x1="932" y1="-184" x2="932" y2="282" gradientUnits="userSpaceOnUse">
<stop stop-color="#40772D"/>
<stop offset="1" stop-color="#ABD29E"/>
</linearGradient>
</defs>
</svg>
