<svg width="1920" height="386" viewBox="0 0 1920 386" fill="none" xmlns="http://www.w3.org/2000/svg">
<path fill-rule="evenodd" clip-rule="evenodd" d="M1927 108.222H1840.29C1753.58 108.222 1580.17 108.222 1406.75 145.259C1233.33 182.296 1059.92 256.37 886.5 237.852C713.083 219.333 539.667 108.222 366.25 117.481C192.833 126.741 19.4166 256.37 -67.2917 321.185L-154 386V-114H-67.2917C19.4166 -114 192.833 -114 366.25 -114C539.667 -114 713.083 -114 886.5 -114C1059.92 -114 1233.33 -114 1406.75 -114C1580.17 -114 1753.58 -114 1840.29 -114H1927L1927 108.222Z" fill="url(#paint0_linear_327_114)"/>
<path fill-rule="evenodd" clip-rule="evenodd" d="M1927 44.8889H1841.67C1756.33 44.8889 1585.67 44.8889 1415 83.7037C1244.33 122.519 1073.67 200.148 903 180.741C732.333 161.333 561.667 44.8889 391 54.5926C220.333 64.2963 49.6666 200.148 -35.6667 268.074L-121 336V-188H-35.6667C49.6666 -188 220.333 -188 391 -188C561.667 -188 732.333 -188 903 -188C1073.67 -188 1244.33 -188 1415 -188C1585.67 -188 1756.33 -188 1841.67 -188H1927V44.8889Z" fill="url(#paint1_linear_327_114)"/>
<path fill-rule="evenodd" clip-rule="evenodd" d="M1897 -9.88889H1814.67C1732.33 -9.88889 1567.67 -9.88889 1403 24.6296C1238.33 59.1482 1073.67 128.185 909 110.926C744.333 93.6667 579.667 -9.88889 415 -1.25926C250.333 7.37038 85.6668 128.185 3.33339 188.593L-78.9999 249L-78.9999 -217L3.33339 -217C85.6668 -217 250.333 -217 415 -217C579.667 -217 744.333 -217 909 -217C1073.67 -217 1238.33 -217 1403 -217C1567.67 -217 1732.33 -217 1814.67 -217H1897L1897 -9.88889Z" fill="url(#paint2_linear_327_114)"/>
<defs>
<linearGradient id="paint0_linear_327_114" x1="886.5" y1="-114" x2="886.5" y2="386" gradientUnits="userSpaceOnUse">
<stop stop-color="#40772D"/>
<stop offset="1" stop-color="#ABD29E"/>
</linearGradient>
<linearGradient id="paint1_linear_327_114" x1="903" y1="-188" x2="903" y2="336" gradientUnits="userSpaceOnUse">
<stop stop-color="#40772D"/>
<stop offset="1" stop-color="#ABD29E"/>
</linearGradient>
<linearGradient id="paint2_linear_327_114" x1="909" y1="-217" x2="909" y2="249" gradientUnits="userSpaceOnUse">
<stop stop-color="#40772D"/>
<stop offset="1" stop-color="#ABD29E"/>
</linearGradient>
</defs>
</svg>
